<mxfile host="65bd71144e">
    <diagram id="1MVXAp7FbuOM5jR8z1t0" name="Page-1">
        <mxGraphModel dx="746" dy="395" grid="1" gridSize="10" guides="1" tooltips="1" connect="1" arrows="1" fold="1" page="1" pageScale="1" pageWidth="827" pageHeight="1169" math="0" shadow="0">
            <root>
                <mxCell id="0"/>
                <mxCell id="1" parent="0"/>
                <mxCell id="5" value="Insectívoro" style="html=1;" vertex="1" parent="1">
                    <mxGeometry x="570" y="180" width="110" height="50" as="geometry"/>
                </mxCell>
                <mxCell id="6" value="Carnívoro" style="html=1;" vertex="1" parent="1">
                    <mxGeometry x="260" y="180" width="110" height="50" as="geometry"/>
                </mxCell>
                <mxCell id="7" value="Hervíboro" style="html=1;" vertex="1" parent="1">
                    <mxGeometry x="410" y="180" width="110" height="50" as="geometry"/>
                </mxCell>
                <mxCell id="8" value="Stock" style="html=1;" vertex="1" parent="1">
                    <mxGeometry x="120" y="180" width="110" height="50" as="geometry"/>
                </mxCell>
                <mxCell id="9" value="Zoo" style="html=1;" vertex="1" parent="1">
                    <mxGeometry x="50" y="100" width="110" height="50" as="geometry"/>
                </mxCell>
                <mxCell id="10" value="Comida" style="html=1;" vertex="1" parent="1">
                    <mxGeometry x="630" y="100" width="110" height="50" as="geometry"/>
                </mxCell>
                <mxCell id="11" value="Vacaciones" style="html=1;" vertex="1" parent="1">
                    <mxGeometry x="480" y="100" width="110" height="50" as="geometry"/>
                </mxCell>
                <mxCell id="12" value="Animal" style="html=1;" vertex="1" parent="1">
                    <mxGeometry x="330" y="100" width="110" height="50" as="geometry"/>
                </mxCell>
                <mxCell id="13" value="Cuidador" style="html=1;" vertex="1" parent="1">
                    <mxGeometry x="190" y="100" width="110" height="50" as="geometry"/>
                </mxCell>
            </root>
        </mxGraphModel>
    </diagram>
</mxfile>
